<?xml version="1.0" encoding="UTF-8"?>
<svg id="Layer_2" data-name="Layer 2" xmlns="http://www.w3.org/2000/svg" xmlns:xlink="http://www.w3.org/1999/xlink" viewBox="0 0 676.02 467.72">
  <defs>
    <style>
      .cls-1 {
        fill: url(#linear-gradient);
        filter: url(#drop-shadow-1);
      }

      .cls-1, .cls-2, .cls-3, .cls-4, .cls-5 {
        stroke-width: 0px;
      }

      .cls-6 {
        letter-spacing: 0em;
      }

      .cls-7 {
        font-family: SculpinVarRoman-Bold, 'Sculpin Variable';
        font-size: 23.02px;
        font-variation-settings: 'wght' 700;
        font-weight: 700;
      }

      .cls-7, .cls-5 {
        fill: #fff;
      }

      .cls-2, .cls-8 {
        fill: #000;
      }

      .cls-8 {
        stroke: #fff;
        stroke-miterlimit: 10;
        stroke-width: 2px;
      }

      .cls-3 {
        fill: #7d7d7d;
      }

      .cls-4 {
        fill: url(#linear-gradient-2);
      }
    </style>
    <linearGradient id="linear-gradient" x1="69.9" y1="367.14" x2="258.04" y2="179" gradientUnits="userSpaceOnUse">
      <stop offset="0" stop-color="#fff"/>
      <stop offset=".03" stop-color="rgba(232, 232, 232, .91)" stop-opacity=".91"/>
      <stop offset=".1" stop-color="rgba(184, 184, 184, .72)" stop-opacity=".72"/>
      <stop offset=".17" stop-color="rgba(140, 140, 140, .55)" stop-opacity=".55"/>
      <stop offset=".25" stop-color="rgba(102, 102, 102, .4)" stop-opacity=".4"/>
      <stop offset=".33" stop-color="rgba(70, 70, 70, .28)" stop-opacity=".28"/>
      <stop offset=".42" stop-color="rgba(44, 44, 44, .18)" stop-opacity=".18"/>
      <stop offset=".52" stop-color="rgba(24, 24, 24, .1)" stop-opacity=".1"/>
      <stop offset=".63" stop-color="rgba(10, 10, 10, .04)" stop-opacity=".04"/>
      <stop offset=".76" stop-color="rgba(2, 2, 2, 0)" stop-opacity="0"/>
      <stop offset="1" stop-color="#000" stop-opacity="0"/>
    </linearGradient>
    <filter id="drop-shadow-1" filterUnits="userSpaceOnUse">
      <feOffset dx="7" dy="7"/>
      <feGaussianBlur result="blur" stdDeviation="5"/>
      <feFlood flood-color="#fff" flood-opacity="1"/>
      <feComposite in2="blur" operator="in"/>
      <feComposite in="SourceGraphic"/>
    </filter>
    <linearGradient id="linear-gradient-2" x1="577.59" y1="374.89" x2="397.11" y2="62.29" gradientUnits="userSpaceOnUse">
      <stop offset="0" stop-color="#fff"/>
      <stop offset=".03" stop-color="rgba(232, 232, 232, .91)" stop-opacity=".91"/>
      <stop offset=".1" stop-color="rgba(184, 184, 184, .72)" stop-opacity=".72"/>
      <stop offset=".17" stop-color="rgba(140, 140, 140, .55)" stop-opacity=".55"/>
      <stop offset=".25" stop-color="rgba(102, 102, 102, .4)" stop-opacity=".4"/>
      <stop offset=".33" stop-color="rgba(70, 70, 70, .28)" stop-opacity=".28"/>
      <stop offset=".42" stop-color="rgba(44, 44, 44, .18)" stop-opacity=".18"/>
      <stop offset=".52" stop-color="rgba(24, 24, 24, .1)" stop-opacity=".1"/>
      <stop offset=".63" stop-color="rgba(10, 10, 10, .04)" stop-opacity=".04"/>
      <stop offset=".76" stop-color="rgba(2, 2, 2, 0)" stop-opacity="0"/>
      <stop offset="1" stop-color="#000" stop-opacity="0"/>
    </linearGradient>
  </defs>
  <g id="Layer_1-2" data-name="Layer 1">
    <path class="cls-1" d="M206.64,466c-3.5-.94-6.69-3.63-9.86-7.5-4.26-5.15-8.85-12.7-14.73-18.28-30.2-29.93-63.47-11.47-84.54-48.55-9.18-15.69-11.68-33.9-17.19-50.92-10.91-41.08-53.88-60.44-73.39-96.28-7.53-13.17-8.41-28.79-5.08-43.74,2.49-12.5,8.28-21.13,18.5-28.34,8.26-6.05,20.71-12.07,31.29-15.84,53.96-16.07,122.48-35.15,174.97-4.07,47.87,28.39,59.49,81.77,65.9,130.24,2.62,23.81,4.81,55.13-16.4,71.56-11.8,9.58-32.13,12.46-44.61,15.65-3.35,1.07-7.27,2.27-8.8,5.44-.87,2.21,1.34,4.07,5.84,3.77,13.97-1.7,27.63-13.52,41.35-17.83,9.72-3.28,11.48,1.83,9.55,9.17-2.68,16.18-51.76,101.49-72.68,95.54l-.12-.03Z"/>
    <g>
      <rect class="cls-8" x="242.03" y="223.54" width="113.12" height="113.12" rx="2" ry="2" transform="translate(30.56 -29.37) rotate(5.93)"/>
      <g>
        <path class="cls-5" d="M319.12,269.86c-.4-.18-.7-1.13-.65-1.69.63-7.95,2.94-16.09.03-23.86-2.28-8.54-12.3-7.61-19.34-7.89-4.56-.41-3,4.82-5.94,6.72-5.35,4.18-6.59,9.89-5.55,16.25,0,.03.01.07.02.1,1.57,5.3,2.59,8.87.54,14.21-.11.28-.39.46-.7.45-7.31-.17-9.89,8.19-13.29,13.34-1.07,1.97-4.47,1.61-5.58,3.49-2.45,3.79-4.91,7.75-6.53,11.97-.02.06-.04.13-.05.19l-.4,3.83c-.09.86,1.15,1.11,1.39.28,1.46-4.99,3.45-9.77,6.47-14.07,2.04-3.33,4.59-1.13,6.12-3.51,3.18-4.46,4.39-11.24,10.07-13,.51-.16,1.02.27.92.8-.74,4.17,7.37,7.54,11.81,8.55.56.13.74.84.31,1.22-4.94,4.35-8.68,9.42-10.97,15.45-.14.36-.52.56-.89.44-6.29-2.11-7.8.71-7.19,6.78.03.33-.16.66-.48.76-8.42,2.7-11.82-2.79-7.72-10.44,1.67-3.15,4.04-.84,6.34-1.2.43-.07.69-.5.57-.92-.1-.34-.21-.65-.44-.81-11.02-6.41-15.61,18.81-2.02,16.15,1.54.24,4.77-1.49,6.74-1.55.79-.02,1,1.09.26,1.37-2.87,1.13-6.49,3.22-4.9,6.24.2.38.7.47,1.04.22.26-.19.5-.39.59-.64,5.94-10.18,9.17,1.94,13.54.74.4-.11.62-.53.49-.92-.12-.36-.25-.71-.49-.81-3.23-1.41-5.21-4.1-7.12-6.84-1.39-1.99-1.5-2.22-3.22-1.89-.38.07-.76-.17-.84-.55-2.5-11.22,15.57,3.12,17.85,6.54.64.69,1.22,2.25,2.44,1.27.95-.84.45-1.39-.13-1.99-.43-.45-.12-1.19.5-1.2,4.91-.1,11.85-2.72,14.5,1.97.08.21.28.38.51.53.43.28,1.01,0,1.09-.51,1.16-7.5-13.76-4.03-18.56-4.23-.07,0-.13-.01-.2-.03-3.76-1.14-6.36-4.56-9.87-6.99-.28-.19-.39-.55-.26-.86,6.1-14.92,18.52-21.76,33.9-24.84.34-.07.69.12.81.44,6.09,15.68,2.78,33.51.13,49.7-.07.4.22.78.63.82l.87.09c.38.04.72-.23.78-.61,2.32-16.78,9.17-49.23-7.93-59.07ZM292.98,246.39c.45-.49,1.28-.15,1.24.52-.16,3.42-.75,6.73-1.01,10.17-1.55,10.08,12.68,8.56-1.21,14.86-.57.26-1.17-.3-.97-.89.65-1.86,1.7-3.41.71-5.34-2.57-6.14-3.61-14.12,1.24-19.32ZM302.49,284.12c-4.76-.13-9.21-1.3-12.73-4.84-2.61-2.85,5.71-6.89,7.9-7.83,2.01-.57,2.55-1.89,2.69-3.63.02-.29.22-.54.5-.63,1.69-.51,3.2-.97,4.72-1.43.48-.14.96.23.92.73-.37,5.02-1.12,10.09-1.49,15.12-.14,1.71-1.25,2.54-2.52,2.51ZM307.22,259.53c-2.62,9.24-14.76,5.78-11.33-6.47,0-.03.02-.07.02-.11l.26-2.47c.67-2.37-.42-5.99,1.7-7.56.07-.05.15-.09.24-.12,11.41-3.49,10.71,9.01,9.13,16.65,0,.02-.01.05-.02.07ZM308.28,280.83c-.49.16-.98-.23-.93-.74.85-9.57,1.97-19.21,2.96-28.77.78-6.58-3.8-12.14-10.59-11.28-.65.08-1.04-.72-.58-1.2h0c.14-.15.34-.23.54-.22,3.64.14,7.31.27,10.88.89.05,0,.1.02.15.04,10.76,3.99,6.82,19.54,5.49,28.31-1.14,4.28,4.53,4.49,6.44,7.36.26.4.08.94-.37,1.09-4.65,1.51-9.27,3-13.98,4.52Z"/>
        <g>
          <path class="cls-2" d="M299.34,259.62c.97.15,1.98.02,2.88-.37"/>
          <path class="cls-5" d="M299.07,260.59c.59.09,1.17.12,1.76.05.33-.04.65-.09.97-.18s.62-.21.92-.34c.21-.09.4-.39.46-.6.07-.24.04-.56-.1-.77s-.34-.4-.6-.46l-.27-.04c-.18,0-.35.05-.5.14l-.05.02.24-.1c-.43.18-.88.3-1.34.36l.27-.04c-.46.06-.93.06-1.39,0l.27.04s-.07,0-.1-.01c-.28-.04-.52-.05-.77.1-.21.12-.41.36-.46.6-.06.26-.05.54.1.77.13.2.35.42.6.46h0Z"/>
        </g>
      </g>
    </g>
    <path class="cls-4" d="M670.5,24.94c10.44,14.17,3.68,27.43-.83,47.64-1.85,7.38-3.72,15.29-5.12,22.65-3.38,16.93-4.06,33.68-2.83,50.78,2.23,23.97,4.36,36.25-9.86,57.36-11.45,16.9-28.45,30.02-40.08,47.02-5.48,7.82-9.9,16.3-13.57,25.12-14.68,35.45-19.12,77.41-47.07,106.08-8.94,9.27-20.15,15.56-32.5,19.31-11.31,3.56-23.8,5.98-33.89,12.29-9.01,5.31-14.95,13.34-21.4,21.28-6.19,7.54-13.83,14.26-22.35,19.26-17.66,10.19-39.26,16.48-58.8,11.77-4.72-1.18-8.65-2.98-12.89-5.06-12.57-6.26-30.26-16.5-47.42-32.35-26.87-23.45-50.19-65.58-53.61-107.7-9.67-84.2,64.59-119.85,87.52-170.23,1.85-4.6,3.62-10.05,5.82-16.27,17.73-59.97,82.71-101.85,111.99-114.57,7.65-3.68,16.46-6.89,25.49-9.81,50.37-16.07,97.52-9.01,145.78.93,9.35,2.26,19.85,7.18,25.48,14.38l.1.12Z"/>
    <g>
      <g>
        <path class="cls-8" d="M232.75,249.91l-77.74,28.14,4.31,11.9,10.68,10.7,40.1,111.1,77.82-28.18-47-129.84c-1.2-3.31-4.86-5.03-8.17-3.83Z"/>
        <path class="cls-8" d="M159.5,277.26h0c3.53,0,6.4,2.87,6.4,6.4v19.95h-12.81v-19.95c0-3.53,2.87-6.4,6.4-6.4Z" transform="translate(-89.33 71.63) rotate(-19.9)"/>
      </g>
      <text class="cls-7" transform="translate(177.75 295.94) rotate(-19.9)"><tspan class="cls-6" x="0" y="0">A</tspan><tspan x="19.27" y="0">a</tspan></text>
      <rect class="cls-3" x="209.01" y="272.63" width="30.09" height="4.56" transform="translate(-80.19 92.67) rotate(-19.9)"/>
      <rect class="cls-3" x="182.57" y="293.41" width="63" height="4.56" transform="translate(-87.86 90.51) rotate(-19.9)"/>
      <rect class="cls-3" x="193.98" y="324.93" width="63" height="4.56" transform="translate(-97.91 96.28) rotate(-19.9)"/>
    </g>
    <path class="cls-8" d="M389.95,464.72l-7.1-108.24h15.65c1.5,0,2.67,1.3,2.51,2.79l-11.06,105.11"/>
    <g>
      <rect class="cls-8" x="332.14" y="264.5" width="121.15" height="121.15" rx="2.08" ry="2.08" transform="translate(154.98 -125.91) rotate(22.59)"/>
      <g id="QEKi7q.tif">
        <g>
          <path class="cls-5" d="M389.82,343.08c-3.57,2.07-6.29,1.88-8.31-.54-2-2.39-1.73-5.23.79-8.11-1.89-2.52-3.81-5.02-5.68-7.57-4.16-5.67-7.91-11.61-11.05-17.9-2.03-4.08-3.91-8.24-4.51-12.81-.19-1.43-.16-2.95.12-4.37.45-2.28,2.1-3.46,4.43-3.54,2.02-.07,3.86.58,5.66,1.41,4.38,2.02,8.26,4.82,11.83,8.01,3.89,3.48,7.56,7.21,11.35,10.8.41.39,1,.75,1.55.83,8.41,1.26,14.48,8.76,13.87,17.24-.05.68.06,1.24.46,1.81,1.12,1.61,2.15,3.27,3.27,4.88.24.34.67.55,1.03.79.16.11.37.12.55.2,1.8.82,3.59,1.38,5.65,1.48,3.27.16,5.71,2.91,6.19,6.25.07.51.36,1.01.64,1.45.87,1.34,1.83,2.61,2.67,3.97.32.51.47,1.15.56,1.76.21,1.4-.66,2.44-2.07,2.52-2.03.12-3.73-.83-5.45-1.71-.35-.18-.72-.32-1.35-.6.39,1.32.78,2.33.97,3.36.35,1.92.74,3.85.82,5.79.08,1.89-.51,3.76-2.38,4.62-1.06.49-2.41.67-3.59.55-3.11-.3-5.78-1.84-8.36-3.47-7.06-4.49-13.07-10.2-18.79-16.24-.29-.3-.58-.6-.87-.88ZM409.39,330.15c-.72,1.42-1.34,2.74-2.05,4.01-.28.5-.26.81.02,1.31,1.76,3.2,3.54,6.4,5.14,9.69.59,1.2.89,2.61,1,3.95.16,2.04-1.19,3.02-3.16,2.48-.69-.19-1.4-.43-1.98-.83-1.86-1.27-3.77-2.5-5.47-3.97-7.35-6.35-13.61-13.7-19.42-21.46-4.18-5.57-8.11-11.3-11.02-17.68-.17-.36-.76-.63-1.21-.75-2.5-.65-4.27-2.75-4.37-5.29-.1-2.51,1.53-4.83,3.95-5.6,3.6-1.16,7.3,1.59,7.33,5.42,0,.37.11.87.36,1.09,2.77,2.48,5.58,4.92,8.39,7.36.22.19.58.44.8.38,1.56-.38,3.11-.83,4.66-1.25-.03-.05-.06-.14-.13-.21-4.54-4.76-9.28-9.3-14.61-13.19-2.94-2.15-5.99-4.13-9.51-5.22-3.79-1.17-5.72.26-5.34,4.22.21,2.25.76,4.52,1.5,6.67,1.84,5.34,4.57,10.27,7.51,15.08,3.56,5.83,7.57,11.35,11.84,16.67.19.24.66.45.95.39,4.52-.79,7.97,3.07,6.54,7.41-.19.59-.05.88.32,1.26,2.76,2.73,5.44,5.56,8.29,8.2,4.25,3.94,8.73,7.63,14,10.16,1.45.7,3.06,1.19,4.65,1.45,2.11.35,3.3-.69,3.58-2.79.08-.58.15-1.19.03-1.75-.46-2.2-1.01-4.38-1.5-6.57-.15-.65-.51-.83-1.17-.88-3.7-.27-6.68-3.21-6.61-6.87.03-1.61-.4-2.81-1.3-3.99-.2-.26-.32-.57-.45-.87-1.02-2.17-.91-2.85.73-4.54-.74-1.12-1.48-2.27-2.28-3.49ZM402.77,336.57c4.25-3.26,6.27-8.97,4.86-14.63-1.4-5.61-5.11-9.21-10.75-10.57-4.83-1.17-9.14.09-12.95,3.32,6.32,7.34,12.55,14.58,18.83,21.87ZM374.18,307.14c.62,1.23,1.27,2.66,2.04,4.02,3.77,6.67,8.26,12.85,13.11,18.76,4.87,5.94,9.96,11.69,15.97,16.53,1.54,1.24,3.28,2.27,5.03,3.21,1.2.64,1.67.26,1.3-1.03-.54-1.91-1.21-3.81-2.07-5.59-1.1-2.28-2.44-4.44-3.73-6.76-.69.67-1.24,1.2-1.8,1.75.67.79,1.28,1.51,1.9,2.23.42.49.71,1.02.09,1.53-.62.51-1.07.11-1.49-.37-8.33-9.67-16.66-19.35-25-29.01-.41-.47-.65-.98-.14-1.46.55-.51,1.08-.27,1.52.24.59.69,1.18,1.37,1.8,2.08.99-.71,1.91-1.36,2.98-2.14-2.73-2.41-5.41-4.77-7.89-6.97-1.29,1.06-2.36,1.94-3.63,2.98ZM417.96,337.75c-1.2.4-2.06,1.21-2.76,2.24-.33.49-.34.86.12,1.26,2.2,1.89,4.4,3.77,6.57,5.69.56.49.94.32,1.42-.09,1.98-1.7,2.44-4.53,1.1-6.85-1.28-2.21-3.99-3.16-6.46-2.26ZM373.78,304.98c1.98-.72,3-2.89,2.3-4.85-.71-1.99-3-3.05-4.95-2.3-1.93.74-2.95,2.99-2.24,4.91.72,1.95,2.93,2.95,4.89,2.24ZM389.41,337.64c-.71-1.96-2.9-2.99-4.86-2.28-2.01.72-3.06,2.96-2.32,4.93.73,1.92,3,2.96,4.91,2.25,1.93-.71,2.97-2.95,2.27-4.89ZM424.46,348.51c1.42.68,2.82,1.45,4.63,1.34-.18-1.95-1.26-3.3-2.33-4.58-.78,1.1-1.51,2.12-2.3,3.23ZM414.54,343.25c.02,2.78,3.03,5.33,5.53,4.76-1.82-1.56-3.66-3.14-5.53-4.76ZM416.04,336.42c-1.12-.31-2.13-.63-3.16-.86-.44-.1-.96.06-.72.68.36.95.83,1.87,1.27,2.84.93-.94,1.69-1.72,2.61-2.65Z"/>
          <path class="cls-5" d="M357.27,329.92c.07-.43.08-.68.15-.92.05-.15.17-.28.29-.39,1.78-1.52,2.77-3.38,2.69-5.78-.01-.33.34-.86.64-.96.3-.1.88.11,1.1.38,1.48,1.84,3.41,2.59,5.71,2.65.34,0,.89.33.96.61.09.35-.2.8-.34,1.2-.02.06-.08.1-.13.15-1.69,1.38-2.49,3.16-2.49,5.35,0,.4-.33,1.04-.65,1.15-.33.11-.97-.18-1.24-.5-1.42-1.69-3.19-2.46-5.37-2.47-.43,0-.85-.29-1.32-.47ZM366.09,326.54c-1.62-.06-2.97-.55-4.07-1.82.13,1.73-.77,2.89-2.12,4.12,1.87-.07,3.22.42,4.3,1.7-.05-1.69.67-2.9,1.89-3.99Z"/>
          <path class="cls-5" d="M423.32,330.64c-.54-.25-.99-.31-1.2-.57-1.52-1.88-3.49-2.66-5.87-2.73-1.08-.03-1.31-.87-.61-1.72.06-.08.12-.16.19-.22,1.71-1.37,2.49-3.16,2.5-5.35,0-.4.33-1.04.65-1.15.33-.11.97.17,1.23.49,1.41,1.71,3.2,2.45,5.37,2.48.41,0,1.08.33,1.15.63.1.39-.28.9-.45,1.35-.01.03-.04.05-.07.07-1.63,1.34-2.42,3.06-2.4,5.19,0,.46-.3.91-.51,1.53ZM420.03,321.72c.06,1.7-.78,2.89-1.93,4.03,1.63,0,2.98.5,4.1,1.79-.19-1.76.77-2.9,2.04-4.09-1.76,0-3.15-.37-4.2-1.73Z"/>
          <path class="cls-5" d="M387.22,359.68c-.11.45-.14.71-.24.94-.08.17-.22.33-.37.45-1.71,1.45-2.61,3.25-2.57,5.53,0,.37-.32.96-.63,1.07-.31.11-.93-.12-1.17-.41-1.45-1.75-3.3-2.53-5.54-2.58-.4,0-.98-.35-1.13-.69-.12-.27.27-.78.44-1.18.02-.06.08-.1.13-.14,1.67-1.37,2.45-3.12,2.43-5.29,0-.4.33-1.03.65-1.14.33-.12.98.14,1.24.45,1.41,1.69,3.18,2.48,5.36,2.5.45,0,.9.31,1.41.49ZM378.14,363.11c1.78.03,3.2.37,4.24,1.8-.05-1.71.68-2.97,2.17-4.18-1.91.06-3.29-.43-4.38-1.77.21,1.79-.72,2.95-2.03,4.14Z"/>
          <path class="cls-5" d="M402.62,294.93c-.29-.27-.62-.5-.86-.81-1.46-1.9-3.44-2.61-5.76-2.72-1.14-.05-1.39-.86-.65-1.75.06-.08.12-.16.2-.22,1.65-1.37,2.48-3.1,2.45-5.27,0-.41.31-1.11.61-1.18.38-.1,1.05.16,1.32.49,1.39,1.67,3.15,2.4,5.29,2.45.44.01,1.1.34,1.23.68.12.34-.18,1.02-.51,1.31-1.66,1.44-2.45,3.2-2.44,5.39,0,.42-.31.85-.48,1.27-.13.12-.26.24-.38.36ZM403.72,287.58c-1.64,0-2.98-.55-4.08-1.81.14,1.73-.76,2.9-2.11,4.11,1.86-.04,3.23.41,4.29,1.72-.04-1.69.69-2.91,1.91-4.03Z"/>
          <path class="cls-5" d="M405.97,323.8c.26,2.14.06,4.01-.6,5.81-.34.92-.82,1.78-1.28,2.65-.27.5-.8.73-1.22.35-.27-.25-.46-.95-.3-1.23,1.25-2.2,1.84-4.52,1.68-7.05-.02-.3.44-.8.77-.91.27-.09.68.27.94.38Z"/>
          <path class="cls-5" d="M405.21,320.61c.25.66.29,1.31-.43,1.62-.7.29-1.03-.23-1.29-.83-.27-.63-.62-1.22-.96-1.81-.29-.52-.35-1.01.2-1.37.54-.35,1-.18,1.32.36.4.67.78,1.36,1.16,2.03Z"/>
        </g>
      </g>
      <path class="cls-8" d="M463.86,311.76c5-12.01.71-22.4-11.3-27.4,12.01,5,22.4.71,27.4-11.3-5,12.01-.71,22.4,11.3,27.4-12.01-5-22.4-.71-27.4,11.3Z"/>
    </g>
    <g>
      <rect class="cls-8" x="192.29" y="300.71" width="184.72" height="27.73" rx="2" ry="2" transform="translate(-58.4 64.98) rotate(-11.82)"/>
      <line class="cls-8" x1="286.63" y1="299.99" x2="319.67" y2="321.6"/>
      <line class="cls-8" x1="308.43" y1="295.43" x2="341.48" y2="317.04"/>
      <line class="cls-8" x1="330.23" y1="290.86" x2="363.28" y2="312.47"/>
    </g>
    <g>
      <path class="cls-8" d="M388.95,466.72h-180.72c-1.1,0-2.06-.9-2.14-2l-8.44-116.55c-.08-1.1.75-2,1.86-2h181.08c1.11,0,2.07.9,2.14,2l8.08,116.55c.08,1.1-.76,2-1.86,2Z"/>
      <line class="cls-8" x1="199.51" y1="373.9" x2="384.52" y2="373.9"/>
      <line class="cls-8" x1="203.09" y1="423.31" x2="387.94" y2="423.31"/>
      <line class="cls-8" x1="274.08" y1="466.72" x2="270.99" y2="423.31"/>
      <line class="cls-8" x1="272.01" y1="437.68" x2="388.94" y2="437.68"/>
      <line class="cls-8" x1="273.11" y1="453.02" x2="390" y2="453.02"/>
      <g>
        <path class="cls-5" d="M215.61,436.09l2.54,5.72,1.72-5.72h1.87l-2.51,7.74h-1.89l-3.62-7.74h1.89Z"/>
        <path class="cls-5" d="M222.76,437.24c-.19-.17-.29-.39-.31-.66s.05-.5.21-.67c.16-.17.4-.26.71-.26s.56.08.74.25c.19.17.29.39.31.67s-.05.49-.21.66c-.16.17-.4.25-.71.25s-.56-.08-.74-.25ZM222.71,438.07h1.66l.42,5.76h-1.66l-.42-5.76Z"/>
        <path class="cls-5" d="M225.91,439.39c.2-.45.5-.81.9-1.07.41-.26.89-.39,1.45-.39s1.02.15,1.41.45c.39.3.67.7.86,1.21l-.28-3.84,1.64-.21.6,8.29h-1.66l-.11-1.53c-.12.51-.35.91-.69,1.21-.34.3-.79.45-1.34.45s-1.06-.13-1.51-.39c-.44-.26-.8-.61-1.06-1.07-.26-.45-.41-.98-.46-1.57s.04-1.1.23-1.55ZM227.57,441.77c.14.24.35.44.61.58.26.14.57.22.93.22s.68-.08.95-.25c.27-.17.48-.39.61-.66l-.1-1.4c-.17-.27-.41-.49-.71-.66-.3-.17-.62-.25-.97-.25s-.67.07-.91.21c-.24.14-.42.33-.53.58-.11.25-.15.52-.13.81s.1.58.25.82Z"/>
        <path class="cls-5" d="M233.39,438.07h1.66l.24,3.33c.03.37.14.65.36.85.21.2.5.3.87.3.27,0,.51-.05.72-.15.21-.1.36-.25.48-.45l-.28-3.87h1.67l.41,5.76h-1.67l-.12-1.61c-.08.59-.27,1.03-.56,1.32-.29.29-.72.43-1.29.43-.67,0-1.2-.2-1.58-.61-.38-.41-.6-.96-.65-1.65l-.26-3.63Z"/>
        <path class="cls-5" d="M217.2,455.49c.65.22,1.29.33,1.94.33.38,0,.71-.04.98-.12.27-.08.47-.18.6-.32.13-.14.19-.32.18-.54-.01-.21-.11-.37-.29-.49-.18-.12-.45-.2-.83-.25l-2.22-.32c-.75-.1-1.32-.32-1.72-.66-.39-.35-.61-.83-.66-1.46-.06-.79.21-1.39.79-1.81.59-.42,1.41-.63,2.46-.63,1.32,0,2.33.24,3.02.73l.4,1.9c-.37-.36-.83-.65-1.4-.86-.57-.21-1.16-.32-1.78-.32s-1.05.07-1.37.2c-.33.14-.48.34-.46.62.01.21.09.36.22.45.13.1.35.17.66.22l2.17.29c.83.11,1.47.35,1.92.71.45.36.7.86.75,1.5.04.55-.07,1.03-.34,1.42-.26.39-.65.69-1.15.88-.51.2-1.1.29-1.77.29s-1.33-.08-1.95-.23c-.62-.15-1.14-.36-1.57-.64l-.38-1.89c.54.44,1.13.76,1.78.98Z"/>
        <path class="cls-5" d="M225.09,456.64c-.41-.39-.65-.98-.7-1.74l-.16-2.17h-1.35l-.1-1.38h1.35l-.13-1.74,1.63-.22.14,1.96h2.21l.1,1.38h-2.21l.15,2.01c.03.37.13.64.3.81.17.17.44.25.8.25.38,0,.75-.1,1.1-.31l-.12,1.46c-.14.09-.32.16-.54.2-.22.05-.48.07-.76.07-.72,0-1.29-.2-1.7-.59Z"/>
        <path class="cls-5" d="M228.91,451.34h1.66l.24,3.33c.03.37.14.65.36.85.21.2.5.3.87.3.27,0,.51-.05.72-.15.21-.1.36-.25.48-.45l-.28-3.87h1.67l.41,5.76h-1.67l-.12-1.61c-.08.59-.27,1.03-.56,1.32-.29.29-.72.43-1.29.43-.67,0-1.2-.2-1.58-.61-.38-.41-.6-.96-.65-1.65l-.26-3.63Z"/>
        <path class="cls-5" d="M236.16,452.67c.2-.45.5-.81.9-1.07.41-.26.89-.39,1.45-.39s1.02.15,1.41.45c.39.3.67.7.86,1.21l-.28-3.84,1.64-.21.59,8.29h-1.66l-.11-1.53c-.12.51-.35.91-.69,1.21-.34.3-.79.45-1.34.45s-1.06-.13-1.5-.39c-.44-.26-.8-.61-1.06-1.07-.26-.45-.41-.98-.46-1.57s.04-1.1.23-1.55ZM237.82,455.04c.14.24.35.44.61.58.26.14.57.22.93.22s.68-.08.95-.25c.27-.17.48-.39.61-.66l-.1-1.4c-.17-.27-.41-.49-.71-.66-.3-.17-.62-.25-.97-.25s-.67.07-.91.21c-.24.14-.42.33-.53.58-.11.25-.15.52-.13.81s.1.58.25.82Z"/>
        <path class="cls-5" d="M243.74,450.51c-.19-.17-.29-.39-.31-.66s.05-.5.21-.67c.16-.17.4-.26.71-.26s.56.08.74.25c.19.17.29.39.31.67s-.05.49-.21.66c-.16.17-.4.25-.71.25s-.56-.08-.74-.25ZM243.7,451.34h1.66l.41,5.76h-1.66l-.41-5.76Z"/>
        <path class="cls-5" d="M248.4,456.85c-.52-.26-.93-.62-1.23-1.08-.3-.46-.47-.97-.51-1.55s.06-1.09.29-1.55c.24-.46.6-.81,1.07-1.07.48-.26,1.05-.39,1.71-.39s1.26.13,1.78.39c.51.26.92.62,1.23,1.07.31.46.48.97.52,1.55s-.06,1.09-.3,1.55c-.24.46-.6.82-1.07,1.08-.48.26-1.05.39-1.72.39s-1.25-.13-1.77-.39ZM250.93,455.63c.24-.14.41-.34.53-.59.12-.25.17-.52.15-.82s-.11-.58-.26-.82c-.15-.24-.36-.44-.62-.58-.27-.14-.56-.22-.88-.22s-.62.07-.86.22c-.24.14-.42.34-.54.58-.12.24-.16.52-.14.82s.11.58.26.82c.15.25.36.44.63.59.27.14.56.22.89.22s.62-.07.85-.22Z"/>
      </g>
      <line class="cls-8" x1="341.58" y1="374.09" x2="367.6" y2="346.17"/>
      <line class="cls-8" x1="319.27" y1="374.09" x2="345.28" y2="346.17"/>
      <line class="cls-8" x1="296.96" y1="374.09" x2="322.96" y2="346.17"/>
      <path class="cls-5" d="M284.57,399.98l-.67-9.5c-.05-.77.75-1.25,1.44-.87l8.57,4.75,8.57,4.75c.69.38.76,1.35.12,1.73l-7.9,4.75-7.9,4.75c-.64.38-1.51-.1-1.56-.87l-.67-9.5Z"/>
    </g>
    <g>
      <circle class="cls-5" cx="132.72" cy="216.47" r="2.64"/>
      <circle class="cls-5" cx="117.11" cy="367.7" r="2.64"/>
      <circle class="cls-5" cx="231.57" cy="200.61" r="2.64"/>
      <circle class="cls-5" cx="61.46" cy="246.16" r="2.64"/>
      <circle class="cls-5" cx="154.21" cy="361.41" r="2.64"/>
      <circle class="cls-5" cx="159.5" cy="397.34" r="2.64"/>
      <circle class="cls-5" cx="424.3" cy="425.75" r="2.64"/>
      <circle class="cls-5" cx="465.57" cy="248.61" r="2.64"/>
      <circle class="cls-5" cx="553.87" cy="209.05" r="2.64"/>
      <circle class="cls-5" cx="497.15" cy="376.34" r="2.64"/>
      <circle class="cls-5" cx="419.43" cy="217.94" r="2.64"/>
      <circle class="cls-5" cx="533.45" cy="290.44" r="2.64"/>
      <circle class="cls-5" cx="541.25" cy="112.9" r="2.64"/>
      <circle class="cls-5" cx="530.81" cy="163.87" r="2.64"/>
      <circle class="cls-5" cx="81.27" cy="211.69" r="2.64"/>
      <circle class="cls-5" cx="180.28" cy="214.92" r="2.64"/>
      <circle class="cls-5" cx="322.75" cy="206.4" r="2.64"/>
      <circle class="cls-5" cx="390.95" cy="135.86" r="2.64"/>
      <circle class="cls-5" cx="478.47" cy="320.17" r="2.64"/>
      <circle class="cls-5" cx="91.59" cy="165.41" r="1.55"/>
      <circle class="cls-5" cx="125.98" cy="261.91" r="1.55"/>
      <circle class="cls-5" cx="28.31" cy="186.76" r="1.55"/>
      <circle class="cls-5" cx="107.99" cy="310.79" r="1.55"/>
      <circle class="cls-5" cx="77.08" cy="298.37" r="1.55"/>
      <circle class="cls-5" cx="307.6" cy="188.3" r="1.55"/>
      <circle class="cls-5" cx="274.08" cy="150.59" r="1.55"/>
      <circle class="cls-5" cx="195.75" cy="165.41" r="1.55"/>
      <circle class="cls-5" cx="429.09" cy="162.32" r="1.55"/>
      <circle class="cls-5" cx="339.75" cy="138.51" r="1.55"/>
      <circle class="cls-5" cx="381.35" cy="90.11" r="1.55"/>
      <circle class="cls-5" cx="486.29" cy="166.96" r="1.55"/>
      <circle class="cls-5" cx="588.4" cy="174.95" r="1.55"/>
      <circle class="cls-5" cx="156.85" cy="125.23" r="1.55"/>
      <circle class="cls-5" cx="493.08" cy="77.88" r="1.55"/>
      <circle class="cls-5" cx="228.92" cy="99.29" r="1.55"/>
      <circle class="cls-5" cx="465.57" cy="105.71" r="1.55"/>
      <circle class="cls-5" cx="378.14" cy="182.38" r="1.55"/>
      <circle class="cls-5" cx="263.24" cy="197.97" r="1.55"/>
      <circle class="cls-5" cx="355.61" cy="214.92" r="1.55"/>
      <circle class="cls-5" cx="497.15" cy="229.58" r="1.55"/>
      <circle class="cls-5" cx="447.76" cy="403.97" r="1.55"/>
      <circle class="cls-5" cx="201.97" cy="229.58" r="1.55"/>
      <circle class="cls-5" cx="403.28" cy="251.96" r="1.55"/>
      <circle class="cls-5" cx="522.96" cy="262.18" r="1.55"/>
      <circle class="cls-5" cx="467.12" cy="344.76" r="1.55"/>
      <circle class="cls-5" cx="524.5" cy="349.68" r="1.55"/>
      <circle class="cls-5" cx="517.1" cy="313.24" r="1.55"/>
      <circle class="cls-5" cx="586.86" cy="274.45" r="1.55"/>
      <circle class="cls-5" cx="564.77" cy="317.01" r="1.55"/>
      <circle class="cls-5" cx="467.12" cy="204.8" r="1.55"/>
    </g>
  </g>
</svg>